<svg width="40" height="40" viewBox="0 0 40 40" fill="none" xmlns="http://www.w3.org/2000/svg">
<g clip-path="url(#clip0_102_15)">
<rect width="40" height="40" rx="4" fill="#EF4444"/>
<path d="M32 32L25.071 25.071M25.071 25.071C26.9463 23.1956 27.9999 20.6521 27.9999 18C27.9999 15.3478 26.9463 12.8043 25.071 10.9289C23.1956 9.05355 20.6521 8 18 8C15.3478 8 12.8043 9.05355 10.9289 10.9289C9.05355 12.8043 8 15.3478 8 18C8 20.6521 9.05355 23.1956 10.9289 25.071C12.8043 26.9463 15.3478 27.9999 18 27.9999C20.6521 27.9999 23.1956 26.9463 25.071 25.071Z" stroke="white" stroke-width="2" stroke-linecap="round" stroke-linejoin="round"/>
</g>
<defs>
<clipPath id="clip0_102_15">
<rect width="40" height="40" fill="white"/>
</clipPath>
</defs>
</svg>